<?xml version="1.0" encoding="UTF-8"?><svg id="Color_Name" xmlns="http://www.w3.org/2000/svg" viewBox="0 0 1000 1000"><g id="Biohazard"><path d="m347.25,271.49l-18.61-38.63,29.83-14.37c1.97-.95,4.01-1.06,6.12-.34,2.11.72,3.65,2.09,4.61,4.09l3.7,7.67c.24.5.42,1,.55,1.49.13.49.19.98.21,1.45,1.08.58,2.01,1.22,2.81,1.92.8.7,1.41,1.49,1.84,2.38l4.08,8.48c.97,2,1.08,4.05.35,6.14-.73,2.09-2.1,3.62-4.1,4.59l-31.39,15.12Zm-2.67-26.94l20.28-9.77c.89-.43,1.38-.79,1.47-1.07.08-.28-.09-.87-.52-1.77l-2.61-5.42c-.43-.89-.78-1.39-1.04-1.48-.27-.09-.84.08-1.74.51l-20.28,9.77c-.89.43-1.4.78-1.51,1.06-.11.27.05.86.48,1.75l2.61,5.42c.43.89.79,1.39,1.08,1.49.29.1.88-.06,1.78-.49Zm7.91,16.42l21.84-10.52c.89-.43,1.4-.78,1.51-1.06.11-.27-.05-.86-.48-1.75l-2.97-6.17c-.43-.89-.79-1.38-1.07-1.47-.28-.08-.87.09-1.77.52l-21.83,10.52c-.89.43-1.4.78-1.51,1.06-.11.27.05.86.48,1.75l2.97,6.17c.43.89.79,1.38,1.07,1.47.28.09.87-.09,1.77-.52Z" style="fill:#4b5563;"/><path d="m377.77,215.31l-2.45-6.71,6.66-2.43,2.45,6.71-6.66,2.43Zm13.28,36.36l-11.85-32.44,6.66-2.43,11.85,32.44-6.66,2.43Z" style="fill:#4b5563;"/><path d="m410.05,245.05c-2.11.57-4.12.3-6.05-.8-1.92-1.1-3.17-2.71-3.74-4.82l-4.85-17.94c-.57-2.11-.3-4.12.8-6.05,1.1-1.92,2.71-3.17,4.82-3.74l18.45-4.99c2.15-.58,4.17-.32,6.08.79,1.9,1.11,3.14,2.72,3.71,4.83l4.85,17.94c.57,2.11.31,4.12-.77,6.04-1.08,1.92-2.7,3.17-4.85,3.75l-18.45,4.99Zm-.64-7.17l16.04-4.34c.96-.26,1.51-.52,1.67-.79.15-.27.1-.88-.16-1.84l-4.2-15.52c-.26-.96-.52-1.51-.79-1.67-.27-.15-.88-.1-1.84.16l-16.04,4.34c-.96.26-1.51.52-1.67.79-.15.27-.1.88.16,1.84l4.2,15.52c.26.96.52,1.51.79,1.67.27.15.88.1,1.84-.16Z" style="fill:#4b5563;"/><path d="m441.17,237.03l-6.24-45.43,7.02-.96,1.54,11.21,19.88-2.73c2.12-.29,4.07.23,5.84,1.57,1.77,1.34,2.8,3.09,3.1,5.26l3.61,26.31-7.02.96-3.44-25.08c-.14-.98-.33-1.57-.57-1.75-.25-.19-.86-.21-1.84-.08l-16.4,2.25c-.98.14-1.58.33-1.78.58-.21.25-.24.87-.11,1.85l3.44,25.07-7.02.96Z" style="fill:#4b5563;"/><path d="m487.43,232.05c-2.22.04-4.12-.72-5.69-2.26-1.57-1.54-2.38-3.41-2.41-5.59l-.21-12.86,27.99-.45-.07-4.47c-.02-.99-.14-1.6-.36-1.81-.22-.21-.83-.31-1.82-.3l-25.84.42-.11-7.09,27.09-.44c2.22-.04,4.12.72,5.69,2.26,1.57,1.54,2.38,3.41,2.41,5.59l.43,26.56-27.09.44Zm1.14-7.11l18.76-.3-.12-7.26-20.9.34.08,5.12c.02.99.13,1.6.36,1.81.22.22.83.31,1.82.3Z" style="fill:#4b5563;"/><path d="m518,231.89l.92-8.05,27.11-16.38-24.91-2.85.81-7.04,34.85,3.99-.92,8.05-27.05,16.38,24.85,2.85-.81,7.04-34.85-3.99Z" style="fill:#4b5563;"/><path d="m564.13,238.4c-2.16-.53-3.81-1.74-4.94-3.63-1.13-1.89-1.44-3.9-.92-6.02l3.05-12.49,27.19,6.65,1.06-4.34c.24-.96.27-1.58.11-1.84-.16-.26-.72-.51-1.69-.75l-25.11-6.14,1.68-6.88,26.32,6.43c2.16.53,3.8,1.74,4.94,3.63,1.13,1.89,1.44,3.9.92,6.02l-6.31,25.8-26.32-6.43Zm2.9-6.59l18.22,4.45,1.73-7.06-20.31-4.96-1.22,4.98c-.24.96-.27,1.58-.11,1.84.16.26.72.51,1.69.75Z" style="fill:#4b5563;"/><path d="m594.37,246.33l9.13-24.94c.75-2.05,2.13-3.54,4.14-4.48,2.01-.93,4.04-1.03,6.09-.27l18.06,6.61-2.44,6.65-16.89-6.18c-.93-.34-1.54-.45-1.82-.32-.28.13-.59.66-.93,1.59l-8.7,23.77-6.65-2.44Z" style="fill:#4b5563;"/><path d="m628.78,259.79c-1.99-1-3.32-2.55-4-4.64-.68-2.1-.53-4.12.45-6.07l8.34-16.6c.98-1.95,2.51-3.28,4.6-3.99,2.09-.71,4.12-.56,6.11.44l17.93,9.01,5.08-10.11,6.33,3.18-20.59,40.97-24.27-12.19Zm4.35-5.74l14.85,7.46c.89.44,1.48.62,1.77.52.29-.1.66-.59,1.11-1.48l7.22-14.37c.44-.89.62-1.48.52-1.77s-.59-.66-1.48-1.11l-14.85-7.46c-.89-.45-1.48-.62-1.77-.52-.29.1-.66.59-1.11,1.48l-7.22,14.37c-.45.89-.62,1.48-.52,1.77.1.29.59.66,1.48,1.11Z" style="fill:#4b5563;"/></g><g id="Cog"><path d="m351.58,309.04c-11.67,7.48-22.89,15.93-33.56,25.34,11.27,33.35,30.88,62.64,56.32,85.19,31.66-32.65,75.99-52.96,125.06-52.96s94.19,20.66,125.9,53.82c25.84-22.58,45.76-52.05,57.22-85.69-10.83-9.68-22.23-18.35-34.1-26.01l-19.75,19.79c-21.48-13.16-45.12-23.12-70.27-29.26v-27.51c-19.01-4.16-38.75-6.37-59.01-6.37s-39.12,2.12-57.74,6.1v27.48c-25.39,6.06-49.27,16.01-70.96,29.21l-19.12-19.12Zm210.21,44.23l11.28-24.64c.89-1.95,2.35-3.31,4.36-4.09,2.02-.78,4-.72,5.95.17l24.91,11.4c1.91.88,3.24,2.34,3.99,4.38.75,2.04.67,4.04-.22,5.99l-11.28,24.64c-.88,1.91-2.34,3.27-4.39,4.08-2.05.81-4.03.77-5.95-.1l-24.91-11.4c-1.95-.89-3.28-2.37-3.99-4.45-.71-2.07-.63-4.06.25-5.98Zm-57.02-9.64l.31-2.3,6.38.84-.19,1.42c-.11.87-.04,1.47.21,1.8.26.33.82.56,1.68.67l25.39,3.36c.87.11,1.47.04,1.8-.21.33-.26.56-.82.67-1.68l1.04-7.85c.11-.87.04-1.47-.21-1.8-.26-.33-.82-.56-1.68-.67l-33.95-4.5,3.18-23.97,42.51,5.63-.85,6.43-33.95-4.5c-.87-.11-1.47-.04-1.8.21-.33.26-.56.82-.67,1.68l-.9,6.79c-.12.87-.04,1.47.21,1.8.26.33.82.56,1.68.67l26.27,3.48c2.08.28,3.79,1.26,5.11,2.96,1.31,1.7,1.83,3.61,1.55,5.73l-1.28,9.62c-.28,2.13-1.28,3.84-2.99,5.13-1.72,1.3-3.61,1.8-5.7,1.53l-27.16-3.6c-2.13-.28-3.84-1.27-5.14-2.96-1.3-1.69-1.81-3.6-1.52-5.73Zm-60.64-25.65c1.24-1.77,2.92-2.83,5.03-3.17l27.04-4.41c2.08-.34,3.99.13,5.75,1.42,1.76,1.28,2.81,2.98,3.15,5.1l4.36,26.74c.34,2.08-.12,4.02-1.37,5.84-1.25,1.81-2.92,2.89-4.99,3.23l-27.04,4.41c-2.12.34-4.05-.14-5.79-1.47-1.75-1.32-2.79-3.02-3.13-5.1l-4.36-26.74c-.34-2.12.1-4.06,1.34-5.83Zm-36.78,10.82l5.81-2.76,10.98,23.07,5.7-2.71,2.79,5.86-5.7,2.71,4.68,9.84-5.81,2.76-4.68-9.84-25.6,12.18-2.79-5.86,14.62-35.25Z" style="fill:#4b5563;"/><path d="m739.8,479.47c-3.32-.18-6.65-.3-9.98-.3-22.09,0-43.56,3.82-63.7,11.02,4.86,16.02,7.48,33.01,7.48,50.61,0,82.64-57.55,151.84-134.75,169.71,3.82,24.33,12.02,47.81,24.22,69.16,23.3-6.17,45.25-15.64,65.33-27.89l19.54,19.62c16.41-10.46,31.96-22.82,46.31-37.11,14.04-13.98,26.23-29.1,36.61-45.06l-19.87-19.96c13.29-21.71,23.32-45.62,29.43-71.07l27.96-.03c4.14-19.01,6.33-38.75,6.31-59.01-.02-19.13-2.03-37.78-5.77-55.8-3.43-.74-6.89-1.37-10.35-1.92l-18.76-1.98Zm-177.27,274.15l-4.21-14.28c8.13-2.4,16.2-5.33,23.98-8.72l5.95,13.65c-8.34,3.63-16.99,6.78-25.71,9.35Zm87.52-49.68c-9.24,8.52-19.26,16.3-29.78,23.12l-8.1-12.49c7.74-5.02,15.19-10.59,22.23-16.63l-8.73-9.49,10.95-10.08,18.9,20.53-5.47,5.04Zm30.41-34.48l-12.12-8.64c5.25-7.36,10.06-15.15,14.3-23.12l13.15,6.98c-4.54,8.55-9.7,16.89-15.32,24.78Zm30.78-61.6l-14.19-4.5c1.19-3.77,2.26-7.58,3.24-11.42l-12.14-2.68,3.21-14.54,12.07,2.67c.79-4.41,1.44-8.84,1.94-13.29l14.8,1.66c-1.6,14.28-4.6,28.44-8.93,42.09Zm-4.68-73.93c-.15-4.51-.44-9.05-.88-13.52l14.82-1.45c.47,4.78.79,9.66.94,14.48l-14.88.49Z" style="fill:#4b5563;"/><path d="m232.96,482.52c-.51.1-1.01.22-1.52.33-4.05,18.92-6.18,38.56-6.12,58.7.06,19.81,2.24,39.11,6.29,57.72l27.02-.09c6.22,25.43,16.37,49.32,29.76,71l-18.93,19.05c10.55,16.35,22.99,31.83,37.37,46.11,14.05,13.96,29.24,26.07,45.26,36.37l19.25-19.38c20.06,12.13,41.98,21.48,65.22,27.55,4.33-7.53,8.17-15.32,11.49-23.32-12.82-3.06-25.41-7.28-37.47-12.57l-6.82-3,11.42-25.95,13.63,6-5.36,12.19c9.69,3.84,19.69,6.95,29.84,9.27,3.42-10.34,6-20.97,7.73-31.77-77.73-17.48-135.8-86.93-135.8-169.94,0-17.87,2.7-35.11,7.69-51.34-19.88-6.99-41.05-10.71-62.84-10.71-3.67,0-7.33.13-10.98.35l-26.13,3.42Zm103.78,185.82c11.53,14.72,25,27.82,40.03,38.94l-8.86,11.97c-16.11-11.92-30.54-25.96-42.9-41.73l11.72-9.18Zm-35.22-67.92l12.28-4.22,4.84,14.08-12.34,4.24c2.45,6.44,5.23,12.75,8.32,18.92l-13.31,6.67c-8.82-17.59-15.25-36.28-19.1-55.56l14.6-2.92c1.27,6.34,2.85,12.6,4.71,18.78Zm-22.98-76.61l14.85,1.13c-.4,5.25-.6,10.59-.6,15.88,0,.86,0,1.72.02,2.57l-14.89.18c-.01-.92-.02-1.84-.02-2.76,0-5.66.22-11.38.64-17Z" style="fill:#4b5563;"/><g id="_4050"><path d="m481.15,346.28c.86-.14,1.42-.37,1.67-.69.25-.32.3-.91.16-1.78l-3.36-20.63-23.8,27.23,25.33-4.13Z" style="fill:#4b5563;"/><path d="m452.64,344.23l23.74-27.22-25.27,4.12c-.86.14-1.42.38-1.66.72-.25.34-.3.94-.16,1.81l3.35,20.57Z" style="fill:#4b5563;"/><path d="m594.18,369.01c.39-.13.76-.59,1.12-1.38l8.7-19.01-34.93,9.36,23.34,10.68c.79.36,1.38.48,1.77.35Z" style="fill:#4b5563;"/><path d="m581.46,331.03c-.79-.36-1.39-.47-1.78-.32-.4.15-.77.62-1.14,1.41l-8.67,18.95,34.88-9.38-23.28-10.66Z" style="fill:#4b5563;"/><polygon points="411.4 337.3 401.23 360.01 418.34 351.87 411.4 337.3" style="fill:#4b5563;"/></g></g><g id="Curvy_Things"><path d="m911.53,522.03c-5.13-12.01-11.08-23.67-17.82-34.89-4.81-8.02-10.03-15.81-15.64-23.35-2.24-3.01-4.55-5.99-6.92-8.92-2.37-2.93-4.8-5.81-7.3-8.65-18.71-21.29-40.9-40-66.34-55.17-1.9-1.13-3.8-2.23-5.71-3.31-5.73-3.23-11.52-6.23-17.38-9,.21-2.23.39-4.47.54-6.72.31-4.5.52-9.02.63-13.58.05-2.28.08-4.56.08-6.86,0-6.06-.18-12.07-.55-18.03-.24-3.97-.56-7.93-.96-11.85-.8-7.86-1.9-15.62-3.31-23.27-.7-3.83-1.48-7.63-2.33-11.4-1.27-5.66-2.71-11.25-4.31-16.77-1.06-3.68-2.2-7.33-3.4-10.94-1.2-3.62-2.48-7.2-3.81-10.75-2.01-5.32-4.17-10.57-6.47-15.73-4.61-10.32-9.81-20.31-15.54-29.92-6.69-11.21-14.11-21.9-22.2-32.01-4.62-5.77-9.46-11.36-14.51-16.74-2.52-2.69-5.1-5.33-7.72-7.91s-5.29-5.12-8.01-7.59c-2.72-2.48-5.49-4.9-8.3-7.27-7.04-5.92-14.36-11.48-21.95-16.67-12.14-8.3-24.96-15.63-38.35-21.89-11.72-5.48-23.88-10.13-36.4-13.9,71.64,31.1,121.93,104.22,121.89,189.32,0,5.19-.19,10.33-.56,15.42-.25,3.39-.57,6.76-.98,10.11-.2,1.67-.42,3.34-.66,5-.28,1.91-.59,3.82-.92,5.72-1.88,10.85-4.59,21.39-8.05,31.58-2.4,7.05-5.16,13.93-8.26,20.61-2.25,4.86-4.69,9.6-7.3,14.24-1.55,2.76-3.16,5.48-4.83,8.15-1.17,1.87-2.35,3.72-3.57,5.54-1.52,2.28-3.1,4.51-4.71,6.72-.49.67-.98,1.34-1.47,2-1.47,1.97-2.98,3.91-4.52,5.83-.37.46-.74.92-1.12,1.38-1.3,1.59-2.63,3.15-3.98,4.7-1.1,1.26-2.21,2.5-3.34,3.73-1.53,1.67-3.08,3.33-4.66,4.95-.05.05-.09.1-.14.14-34.24,34.92-80.7,57.12-132.17,59.2v14.59c4.72.76,9.23,2.17,13.45,4.14,2.11.98,4.15,2.11,6.1,3.36,3.25,2.09,6.27,4.53,9,7.27,1.09,1.1,2.14,2.24,3.14,3.43.5.6.99,1.2,1.46,1.82.95,1.23,1.84,2.51,2.69,3.83,1.26,1.97,2.41,4.04,3.41,6.18,1.35,2.85,2.45,5.85,3.3,8.95,1.27,4.65,1.95,9.56,1.94,14.62,0,.83-.02,1.66-.05,2.49-.07,1.66-.22,3.31-.44,4.95-.11.82-.24,1.64-.39,2.45-.59,3.26-1.47,6.46-2.64,9.58l12.48,7.44c1.06-1.72,2.15-3.42,3.25-5.1.33-.5.66-.99.99-1.48.82-1.23,1.65-2.45,2.5-3.65.34-.49.69-.98,1.03-1.47,1.08-1.52,2.18-3.02,3.3-4.5.08-.1.15-.21.23-.31,1.2-1.58,2.42-3.13,3.66-4.67.35-.43.7-.86,1.06-1.29.93-1.14,1.87-2.26,2.82-3.37.38-.45.76-.89,1.15-1.34,1.15-1.32,2.31-2.63,3.49-3.91.14-.15.28-.31.42-.46,1.33-1.44,2.67-2.85,4.03-4.24.36-.37.73-.73,1.09-1.1,1.04-1.04,2.08-2.07,3.14-3.09.41-.4.82-.79,1.23-1.18,1.22-1.15,2.45-2.29,3.7-3.41.19-.17.38-.35.56-.52,1.44-1.29,2.91-2.55,4.38-3.8.36-.3.72-.6,1.08-.9,1.14-.95,2.3-1.89,3.46-2.81.43-.34.86-.68,1.3-1.02,1.28-1,2.57-1.98,3.87-2.94.24-.18.47-.36.71-.53,1.55-1.14,3.11-2.25,4.69-3.33.35-.24.7-.47,1.05-.71,1.25-.85,2.5-1.68,3.76-2.5.45-.29.91-.59,1.36-.87,1.33-.84,2.67-1.67,4.01-2.48.29-.17.57-.35.86-.52,1.64-.98,3.29-1.93,4.95-2.86.33-.19.67-.36,1.01-.55,1.34-.73,2.68-1.45,4.03-2.15.48-.25.96-.49,1.44-.74,1.36-.69,2.72-1.37,4.09-2.02.34-.16.68-.34,1.03-.5,1.71-.81,3.43-1.6,5.16-2.35.32-.14.64-.27.96-.41,1.41-.61,2.84-1.21,4.26-1.79.5-.2,1-.4,1.5-.6,1.38-.54,2.76-1.07,4.15-1.58.39-.15.78-.3,1.18-.44,1.77-.64,3.54-1.26,5.32-1.84.3-.1.6-.19.9-.29,1.48-.48,2.98-.95,4.47-1.39.53-.16,1.05-.31,1.58-.46,1.38-.4,2.76-.78,4.15-1.15.45-.12.9-.24,1.35-.36,1.81-.47,3.62-.91,5.44-1.32.27-.06.54-.12.81-.18,1.55-.35,3.11-.67,4.67-.98.55-.11,1.09-.21,1.64-.31,1.38-.26,2.76-.5,4.14-.73.49-.08.99-.17,1.48-.25,1.84-.29,3.67-.56,5.52-.8.23-.03.46-.05.68-.08,1.62-.2,3.24-.38,4.87-.55.56-.06,1.13-.11,1.69-.16,1.37-.13,2.75-.23,4.12-.33.53-.04,1.06-.08,1.59-.11,1.86-.11,3.71-.21,5.57-.27.15,0,.29,0,.44,0,1.72-.05,3.43-.08,5.15-.08.22,0,.45-.01.67-.01.33,0,.67.01,1,.02,1.43,0,2.87.03,4.3.07.53.01,1.05.02,1.58.04,1.89.07,3.78.16,5.68.28.24.02.49.04.73.06,1.66.11,3.32.25,4.98.41.58.06,1.16.12,1.74.18,1.44.15,2.88.32,4.32.5.5.06,1.01.12,1.51.19,1.88.25,3.75.53,5.63.84.39.06.77.14,1.16.2,1.52.26,3.04.54,4.56.84.6.12,1.19.24,1.79.36,1.45.3,2.9.62,4.35.95.46.11.92.21,1.39.32,1.85.44,3.71.91,5.55,1.42.46.13.93.26,1.39.39,1.43.4,2.86.82,4.29,1.25.59.18,1.18.36,1.77.55,1.5.47,3,.96,4.49,1.47.37.13.75.25,1.13.38,1.83.64,3.66,1.31,5.48,2.01.5.19.99.39,1.49.58,1.39.54,2.77,1.1,4.15,1.68.56.24,1.13.47,1.69.71,1.6.69,3.2,1.4,4.79,2.13.23.11.46.2.69.31,1.8.84,3.6,1.72,5.39,2.62.51.25,1.01.52,1.51.78,1.35.69,2.69,1.41,4.04,2.13.52.28,1.05.57,1.57.86,1.78.99,3.55,1.99,5.31,3.04,71.46,42.62,107.69,124.11,97.89,203.6,14.67-61.58,8.59-125.76-15.61-182.36Zm-304.99-31.81c.05,4-1.11,7.73-3.15,10.85-.34.52-.7,1.02-1.09,1.5-.77.97-1.64,1.86-2.58,2.66-1.88,1.6-4.08,2.85-6.49,3.64-1.2.4-2.46.68-3.76.83-.65.08-1.31.12-1.97.13-.2,0-.4,0-.59,0-.25,0-.49-.03-.73-.04-.32-.01-.64-.02-.95-.05-.34-.03-.67-.08-1-.12-.31-.04-.62-.08-.93-.14-.33-.06-.65-.14-.98-.22-.3-.07-.6-.14-.89-.22-.32-.09-.63-.2-.94-.31-.29-.1-.57-.19-.86-.31-.31-.12-.6-.26-.9-.4-.27-.13-.55-.24-.81-.38-.29-.15-.57-.32-.86-.49-.26-.15-.52-.29-.76-.45-.28-.18-.54-.37-.81-.57-.24-.17-.48-.34-.71-.52-.26-.2-.5-.43-.75-.64-.22-.19-.44-.38-.65-.58-.24-.23-.46-.48-.69-.72-.2-.21-.4-.41-.59-.63-.22-.25-.42-.52-.62-.78-.18-.23-.36-.45-.53-.68-.2-.28-.37-.57-.56-.86-.15-.24-.32-.47-.46-.72-.17-.3-.32-.62-.48-.93-.13-.25-.26-.49-.38-.75-.15-.33-.27-.67-.4-1.01-.1-.25-.21-.5-.3-.76-.12-.36-.22-.74-.32-1.11-.07-.25-.15-.49-.21-.74-.1-.42-.16-.85-.24-1.28-.04-.21-.09-.42-.11-.64-.09-.65-.14-1.31-.16-1.98-.32-10.83,8.2-19.87,19.03-20.19.2,0,.4,0,.59,0,.25,0,.49.03.74.04.32.01.64.02.95.05.34.03.67.08,1.01.12.31.04.62.08.92.14.33.06.66.14.98.22.3.07.59.14.89.22.32.09.63.21.95.32.28.1.57.19.85.3.31.12.61.27.91.4.27.12.54.24.8.38.3.15.58.32.87.49.25.15.51.29.76.45.28.18.55.38.81.57.24.17.48.33.71.51.26.21.51.43.76.65.22.19.44.37.65.57.24.23.47.48.7.72.2.21.4.41.59.63.22.26.42.53.63.79.17.22.36.44.52.67.2.28.38.58.56.87.15.24.31.47.45.71.18.3.33.62.49.94.13.25.26.49.38.74.15.33.27.67.41,1.01.1.25.21.5.3.76.12.36.22.74.32,1.11.07.25.15.49.21.74.1.42.16.86.24,1.29.03.21.09.42.11.63.09.65.14,1.31.16,1.98,0,.1,0,.2,0,.29,0,.1,0,.2,0,.29h0Zm43.09-22.87c-.13.13-.27.24-.41.36-.15.13-.29.26-.45.39-.14.11-.29.21-.43.32-.16.12-.32.24-.49.35-.15.1-.31.19-.47.28-.17.1-.34.2-.52.3-.16.08-.33.16-.49.23-.18.08-.36.17-.55.25-.17.07-.35.13-.52.19-.19.07-.38.14-.57.19-.18.05-.36.09-.54.14-.2.05-.39.1-.59.14-.19.04-.37.06-.56.08-.2.03-.41.06-.61.08-.19.02-.38.02-.58.03-.16,0-.32.02-.48.02-.1,0-.2,0-.3,0-1.53-.04-2.98-.37-4.3-.93-.28-.12-.56-.25-.83-.39-1.19-.61-2.28-1.41-3.19-2.38-.26-.28-.51-.56-.75-.86-.24-.3-.46-.61-.66-.93-1.24-1.93-1.93-4.24-1.87-6.71h0s0-.02,0-.04c.01-.39.04-.78.09-1.16.02-.15.05-.29.08-.44.04-.24.07-.48.13-.72.04-.17.09-.33.14-.49.06-.21.11-.42.18-.63.05-.16.12-.31.18-.47.08-.2.15-.4.23-.6.07-.17.16-.32.24-.48.09-.18.17-.36.27-.53.09-.17.2-.32.3-.48.1-.16.19-.32.3-.48.11-.16.23-.3.35-.45.11-.15.22-.3.34-.44.12-.14.26-.27.38-.41.13-.14.25-.28.39-.41.13-.13.28-.25.42-.37.14-.13.28-.26.43-.38.15-.12.3-.22.45-.33.15-.11.3-.23.46-.33.16-.1.32-.19.48-.29.16-.1.32-.2.49-.29.16-.09.34-.16.5-.24.18-.08.35-.17.53-.25.17-.07.34-.12.51-.18.19-.07.38-.14.57-.2.17-.05.35-.09.53-.13.2-.05.39-.11.6-.15.18-.04.37-.06.55-.08.2-.03.41-.07.61-.09.19-.02.38-.02.57-.03.2,0,.39-.03.6-.03.02,0,.05,0,.07,0,1.66.03,3.23.39,4.66,1.02,2.14.95,3.95,2.5,5.21,4.44,1.26,1.94,1.99,4.26,1.95,6.75h.01c-.01.41-.04.81-.09,1.21-.02.13-.05.26-.07.39-.04.26-.08.53-.14.78-.04.16-.09.31-.13.46-.06.22-.12.45-.19.67-.05.16-.12.32-.18.48-.08.2-.15.41-.24.6-.07.16-.16.31-.24.47-.09.18-.18.37-.28.55-.09.15-.19.3-.28.45-.11.17-.21.35-.33.51-.1.15-.22.28-.33.42-.12.16-.24.32-.37.47-.12.14-.24.26-.37.39-.14.14-.27.29-.41.43Z" style="fill:#16a34a;"/><path d="m491.86,473.28c-29.83-1.29-57.96-9.34-82.99-22.7-1.39-.74-2.77-1.5-4.14-2.28-9.6-5.43-18.71-11.64-27.27-18.57-1.22-.99-2.43-1.99-3.63-3.01-2.4-2.04-4.75-4.13-7.05-6.27-4.6-4.29-9.01-8.81-13.2-13.52-7.34-8.25-14.04-17.13-20-26.53-.85-1.34-1.69-2.7-2.51-4.06-3.29-5.46-6.34-11.1-9.12-16.89-2.09-4.34-4.04-8.77-5.83-13.28-1.2-3.01-2.33-6.05-3.39-9.12-3.71-10.77-6.58-21.95-8.51-33.45-.55-3.29-1.03-6.6-1.43-9.94-1-8.35-1.5-16.85-1.5-25.48,0-7.99.44-15.86,1.31-23.61.57-5.16,1.34-10.27,2.28-15.31,1.41-7.56,3.22-14.97,5.42-22.21s4.76-14.31,7.69-21.18c1.95-4.58,4.06-9.07,6.32-13.47,2.26-4.4,4.67-8.7,7.22-12.9,2.55-4.2,5.25-8.3,8.08-12.29,4.25-5.98,8.81-11.72,13.65-17.19,4.84-5.47,9.96-10.66,15.34-15.56,16.15-14.7,34.62-26.75,54.78-35.47-12.53,3.74-24.7,8.38-36.42,13.84-3.35,1.56-6.67,3.19-9.94,4.88-6.55,3.39-12.96,7.03-19.2,10.93-3.12,1.95-6.2,3.96-9.24,6.03-3.04,2.07-6.04,4.2-8.99,6.39-2.95,2.19-5.86,4.44-8.73,6.75s-5.68,4.67-8.45,7.09c-6.25,5.46-12.25,11.2-18,17.21-1.9,1.98-3.78,3.98-5.62,6.02-1.24,1.37-2.46,2.75-3.67,4.14-4.84,5.57-9.48,11.35-13.89,17.31-1.1,1.49-2.19,2.99-3.27,4.5-2.15,3.03-4.24,6.1-6.27,9.21-3.05,4.67-5.97,9.44-8.75,14.31-4.64,8.11-8.9,16.47-12.75,25.07-.77,1.72-1.52,3.45-2.26,5.19-5.9,13.91-10.76,28.4-14.46,43.36-.93,3.74-1.78,7.51-2.56,11.31-.78,3.8-1.49,7.63-2.12,11.48-2.52,15.42-3.84,31.25-3.85,47.41,0,4.51.1,9,.3,13.47.2,4.47.5,8.91.89,13.33-7.21,3.39-14.31,7.15-21.31,11.23-.71.41-1.42.81-2.12,1.23-23.74,14.1-44.67,31.3-62.58,50.81-1.28,1.39-2.54,2.8-3.79,4.22-7.49,8.5-14.43,17.42-20.79,26.7-3.18,4.64-6.22,9.36-9.11,14.17-1.93,3.2-3.79,6.44-5.59,9.72-34.19,62.21-44.88,136.57-28.06,207.51-5.16-42.24,2.65-85.03,21.84-122.24,9.03-17.51,20.58-33.79,34.48-48.19,1.74-1.8,3.51-3.57,5.32-5.31,10.86-10.44,23.04-19.79,36.46-27.77,1.76-1.05,3.53-2.05,5.31-3.04.52-.29,1.04-.57,1.56-.85,1.34-.73,2.69-1.44,4.05-2.14.5-.26,1-.52,1.5-.77,1.8-.9,3.6-1.78,5.41-2.63.15-.07.3-.14.45-.2,1.67-.77,3.35-1.51,5.03-2.24.53-.23,1.06-.45,1.59-.67,1.41-.59,2.83-1.16,4.24-1.72.47-.18.94-.37,1.41-.55,1.85-.71,3.7-1.39,5.57-2.03.25-.09.5-.16.74-.25,1.62-.56,3.25-1.09,4.88-1.6.54-.17,1.07-.33,1.61-.49,1.48-.45,2.96-.88,4.44-1.29.43-.12.86-.25,1.29-.36,1.88-.51,3.77-.99,5.67-1.44.33-.08.67-.15,1-.23,1.57-.37,3.15-.71,4.72-1.03.55-.11,1.09-.22,1.64-.33,1.52-.3,3.05-.58,4.57-.84.4-.07.8-.14,1.19-.21,1.9-.31,3.79-.6,5.69-.85.42-.06.83-.1,1.25-.16,1.51-.19,3.02-.37,4.53-.52.57-.06,1.14-.12,1.7-.17,1.56-.15,3.12-.28,4.68-.39.36-.03.71-.06,1.07-.08,1.89-.12,3.78-.21,5.67-.28.48-.02.96-.02,1.44-.04,1.45-.04,2.91-.06,4.36-.07.32,0,.63-.02.95-.02.26,0,.52.01.78.01,1.54,0,3.08.03,4.62.07.34,0,.68.01,1.02.02,1.86.06,3.71.15,5.56.27.5.03.99.07,1.49.11,1.39.1,2.79.21,4.18.34.59.05,1.18.11,1.77.17,1.47.15,2.94.32,4.41.5.39.05.79.09,1.19.14,1.83.24,3.65.5,5.47.79.49.08.97.16,1.46.25,1.37.23,2.74.47,4.1.73.6.11,1.2.23,1.79.35,1.4.28,2.79.57,4.18.88.44.1.88.19,1.32.29,1.78.41,3.56.84,5.33,1.3.48.12.96.26,1.44.39,1.33.36,2.66.72,3.98,1.11.61.18,1.21.35,1.81.54,1.31.4,2.62.81,3.93,1.23.48.16.96.3,1.44.46,1.73.57,3.45,1.17,5.16,1.79.47.17.93.35,1.39.52,1.29.48,2.58.97,3.86,1.48.6.24,1.2.48,1.8.72,1.24.51,2.48,1.03,3.71,1.56.5.22,1,.42,1.5.64,1.67.74,3.32,1.49,4.97,2.28.43.21.86.42,1.3.63,1.26.61,2.51,1.23,3.75,1.87.58.3,1.17.6,1.75.91,1.17.61,2.34,1.24,3.5,1.88.5.28,1,.55,1.5.83,1.6.89,3.18,1.81,4.75,2.75.39.23.78.48,1.16.71,1.23.74,2.45,1.5,3.66,2.27.55.35,1.1.71,1.65,1.07,1.11.72,2.22,1.46,3.32,2.21.49.33.98.66,1.46.99,1.52,1.05,3.02,2.13,4.52,3.22.33.24.65.5.98.74,1.2.89,2.39,1.8,3.57,2.72.51.4,1.02.8,1.52,1.21,1.05.84,2.1,1.7,3.14,2.56.46.38.91.75,1.37,1.14,1.43,1.21,2.86,2.45,4.26,3.7.25.22.49.45.74.68,1.18,1.07,2.35,2.16,3.51,3.26.46.43.91.87,1.36,1.31,1,.96,1.98,1.94,2.96,2.93.41.42.83.83,1.24,1.26,1.34,1.38,2.67,2.77,3.97,4.19.16.17.32.36.48.53,1.16,1.27,2.3,2.56,3.43,3.86.4.47.8.94,1.21,1.41.92,1.09,1.84,2.19,2.74,3.3.37.46.75.91,1.12,1.38,1.23,1.53,2.44,3.08,3.63,4.66.08.1.15.21.23.31,1.12,1.49,2.21,3,3.3,4.53.35.5.7,1,1.05,1.5.84,1.21,1.67,2.42,2.48,3.65.33.5.67,1,1,1.51,1.1,1.69,2.19,3.39,3.25,5.12l12.28-7.3c-2.39-6.31-3.61-13.01-3.59-19.76,0-1.69.08-3.36.22-5.02.22-2.48.61-4.91,1.14-7.28.71-3.16,1.7-6.22,2.93-9.14,2.15-5.12,5.04-9.83,8.53-14,.5-.59,1.01-1.18,1.53-1.75,7.85-8.58,18.38-14.53,30.19-16.41v-14.61Zm-117.84-11.06c-.11.39-.24.76-.38,1.13-.29.74-.65,1.44-1.07,2.1-.42.66-.91,1.28-1.45,1.84-1.08,1.13-2.37,2.06-3.82,2.71-1.45.65-3.04,1.03-4.73,1.07-.1,0-.2,0-.3,0-.17,0-.33-.02-.49-.02-.2,0-.4-.01-.59-.03-.21-.02-.42-.05-.63-.08-.19-.03-.38-.05-.57-.09-.21-.04-.41-.09-.61-.14-.18-.05-.37-.09-.55-.14-.2-.06-.39-.13-.59-.2-.18-.06-.36-.12-.53-.19-.19-.08-.38-.17-.56-.25-.17-.08-.34-.15-.5-.24-.18-.1-.36-.2-.54-.31-.16-.09-.32-.18-.47-.28-.17-.11-.34-.24-.51-.36-.15-.11-.29-.21-.44-.32-.16-.13-.32-.27-.47-.41-.13-.12-.27-.23-.4-.36-.15-.15-.29-.3-.43-.45-.12-.13-.25-.26-.37-.39-.14-.16-.26-.33-.39-.5-.11-.14-.22-.27-.32-.42-.12-.18-.23-.36-.35-.54-.09-.15-.19-.29-.28-.44-.11-.19-.2-.39-.3-.58-.08-.16-.16-.31-.24-.47-.09-.21-.17-.42-.25-.63-.06-.16-.13-.31-.18-.47-.08-.22-.13-.46-.19-.69-.04-.16-.09-.31-.13-.47-.06-.25-.1-.52-.14-.77-.02-.14-.06-.28-.07-.42-.05-.37-.07-.74-.08-1.12,0-.04,0-.08,0-.11,0-.1,0-.2,0-.29-.03-2.08.47-4.04,1.37-5.75.18-.34.38-.68.59-1,.42-.65.91-1.25,1.44-1.8.38-.4.81-.76,1.24-1.1.48-.37.97-.72,1.5-1.02,1.01-.57,2.12-1,3.29-1.26.78-.17,1.59-.27,2.42-.28.02,0,.04,0,.07,0h0s0,0,0,0h-.01c.1,0,.2,0,.3,0,.17,0,.33.02.49.02.2,0,.4.01.59.03.21.02.42.05.63.08.19.03.38.05.57.09.21.04.41.09.61.14.18.05.37.09.55.14.2.06.4.13.59.2.18.06.35.12.53.19.19.08.38.17.57.26.17.08.33.15.5.23.19.1.36.21.54.31.16.09.31.18.46.28.18.12.34.24.52.37.14.1.29.2.43.31.17.13.32.28.48.42.13.12.27.23.39.35.15.15.3.31.44.46.12.13.24.25.36.38.14.16.27.34.4.51.11.14.22.27.32.41.12.18.24.36.35.55.09.15.19.29.28.44.11.19.2.39.3.58.08.16.16.31.23.46.09.21.17.42.25.63.06.16.13.31.18.47.08.22.13.46.19.69.04.16.09.31.13.47.06.25.1.52.14.77.02.14.06.28.07.42.05.37.07.74.08,1.12,0,.04,0,.08,0,.11.03,1.26-.13,2.49-.46,3.64Zm57.77,41.34c-.52.55-1.08,1.06-1.66,1.55-.86.73-1.78,1.39-2.76,1.96-1.09.64-2.26,1.17-3.47,1.59-1.83.63-3.78.99-5.81,1.05-.2,0-.4,0-.59,0-.25,0-.49-.03-.74-.04-.32-.01-.63-.02-.95-.05-.34-.03-.67-.08-1.01-.12-.31-.04-.62-.08-.92-.14-.33-.06-.65-.14-.98-.22-.3-.07-.6-.14-.89-.22-.32-.09-.63-.21-.95-.31-.28-.1-.57-.19-.85-.3-.31-.12-.61-.27-.91-.4-.27-.12-.54-.24-.81-.38-.29-.15-.58-.32-.86-.49-.25-.15-.51-.29-.76-.45-.28-.18-.54-.38-.81-.57-.24-.17-.48-.33-.71-.52-.26-.21-.51-.43-.76-.65-.22-.19-.44-.38-.65-.58-.24-.23-.47-.48-.7-.72-.2-.21-.4-.41-.59-.63-.22-.26-.42-.53-.63-.79-.18-.22-.36-.44-.52-.67-.2-.28-.38-.57-.56-.86-.15-.24-.31-.47-.45-.72-.17-.3-.33-.62-.49-.93-.13-.25-.26-.49-.38-.74-.15-.33-.27-.67-.41-1.01-.1-.25-.21-.5-.3-.75-.12-.36-.22-.74-.32-1.11-.07-.25-.15-.49-.21-.74-.1-.42-.16-.85-.23-1.28-.04-.21-.09-.42-.12-.64-.09-.65-.14-1.31-.16-1.98,0-.2,0-.39,0-.59,0-.67.02-1.33.07-1.98.23-2.6.97-5.06,2.13-7.26,1.16-2.21,2.73-4.16,4.62-5.77.94-.8,1.96-1.51,3.05-2.13.54-.31,1.1-.59,1.68-.84,2.3-1.01,4.83-1.59,7.49-1.64.2,0,.4,0,.59,0,.25,0,.49.03.74.04.32.01.64.02.95.05.34.03.67.08,1.01.12.31.04.62.08.92.14.33.06.65.14.98.22.3.07.6.14.89.22.32.09.63.21.95.31.28.1.57.19.85.3.31.12.61.27.91.4.27.12.54.24.81.38.29.15.58.32.86.49.25.15.51.29.76.45.28.18.54.38.81.57.24.17.48.34.71.52.26.21.51.43.76.65.22.19.44.38.65.58.24.23.47.48.7.72.2.21.4.41.59.63.22.26.42.53.63.8.17.22.36.44.52.67.2.28.38.57.56.87.15.24.31.47.45.71.18.3.33.62.49.94.12.25.26.49.38.74.15.33.28.68.41,1.02.1.25.21.49.29.75.13.37.22.75.32,1.12.07.24.15.48.21.72.1.43.17.88.24,1.32.03.2.08.4.11.6.09.65.14,1.31.16,1.99.16,5.42-1.89,10.38-5.33,14.04Z" style="fill:#16a34a;"/><path d="m843.93,846.67c-1.74,1.25-3.5,2.47-5.27,3.67-.31.21-.63.42-.94.63-1.76,1.17-3.54,2.31-5.33,3.42-.3.19-.61.37-.91.56-1.84,1.13-3.7,2.23-5.57,3.29-.18.1-.36.2-.54.3-1.88,1.06-3.77,2.09-5.68,3.08-.14.08-.29.15-.43.23-1.92,1-3.86,1.95-5.81,2.88-.31.15-.62.3-.92.44-1.89.89-3.8,1.75-5.72,2.58-.35.15-.7.3-1.04.45-1.93.82-3.87,1.62-5.83,2.37-.29.11-.58.22-.87.33-2.05.78-4.1,1.54-6.17,2.25-.06.02-.12.04-.17.06-2.06.71-4.13,1.37-6.21,2.01-.25.08-.5.16-.75.23-2.02.61-4.05,1.18-6.09,1.73-.35.09-.71.19-1.06.28-2.01.53-4.03,1.02-6.05,1.48-.35.08-.71.16-1.06.24-2.07.46-4.14.89-6.22,1.28-.23.04-.46.08-.69.12-2.11.39-4.23.75-6.35,1.06-.12.02-.23.04-.35.06-2.14.32-4.29.59-6.44.84-.32.04-.64.08-.97.11-2.08.23-4.16.42-6.24.58-.38.03-.75.06-1.13.08-2.09.15-4.17.26-6.27.34-.32.01-.65.02-.97.03-2.12.07-4.24.12-6.36.12-.05,0-.09,0-.14,0-.41,0-.81-.02-1.22-.02-1.87-.01-3.74-.04-5.61-.11-.8-.03-1.6-.08-2.39-.12-1.48-.07-2.96-.15-4.45-.26-.9-.06-1.79-.15-2.69-.22-1.39-.12-2.79-.25-4.18-.4-.92-.1-1.85-.21-2.77-.32-1.38-.17-2.75-.35-4.12-.55-.92-.13-1.84-.27-2.75-.41-1.41-.23-2.82-.48-4.24-.73-.86-.16-1.73-.31-2.59-.48-1.57-.31-3.13-.65-4.69-1-.7-.16-1.4-.3-2.1-.46-2.26-.53-4.51-1.1-6.76-1.71-.24-.06-.47-.14-.71-.21-2.01-.56-4.01-1.14-6.01-1.77-.76-.24-1.51-.5-2.27-.74-1.48-.48-2.95-.97-4.42-1.49-.87-.31-1.73-.63-2.59-.95-1.36-.5-2.72-1.01-4.07-1.55-.89-.35-1.79-.72-2.68-1.08-1.33-.55-2.65-1.11-3.98-1.69-.88-.39-1.77-.78-2.65-1.18-1.35-.61-2.69-1.25-4.02-1.9-.84-.4-1.68-.8-2.51-1.22-1.45-.73-2.9-1.49-4.34-2.26-.7-.37-1.4-.73-2.1-1.11-2.13-1.17-4.26-2.37-6.37-3.63-92.89-55.35-126.12-176.2-76.55-273.21l-12.48-7.44c-.59.78-1.21,1.53-1.83,2.26-.2.24-.41.46-.62.7-.43.49-.87.97-1.32,1.44-.25.26-.5.51-.76.77-.42.43-.85.85-1.29,1.25-.27.25-.53.5-.8.74-.45.4-.91.8-1.37,1.18-.26.22-.52.44-.79.65-.53.42-1.06.83-1.6,1.22-.21.15-.41.32-.62.47-.76.54-1.52,1.06-2.3,1.56-.13.08-.27.16-.4.24-.65.41-1.31.8-1.98,1.18-.27.15-.55.3-.83.45-.54.29-1.07.57-1.62.84-.31.15-.62.3-.94.45-.53.25-1.05.48-1.59.71-.32.14-.64.27-.96.4-.55.22-1.11.44-1.67.64-.3.11-.59.22-.89.33-.67.23-1.34.44-2.02.64-.19.06-.38.12-.58.18-.87.25-1.75.48-2.63.68-.23.05-.45.09-.68.14-.66.14-1.32.28-1.98.39-.32.06-.64.1-.97.15-.58.09-1.16.17-1.74.24-.35.04-.69.08-1.04.11-.57.06-1.14.11-1.71.14-.34.02-.69.05-1.03.06-.6.03-1.21.04-1.81.05-.23,0-.46.02-.69.02-.09,0-.19,0-.28,0-.25,0-.5,0-.76-.01-.52-.01-1.04-.03-1.56-.05-.28-.01-.56-.03-.84-.05-.51-.03-1.01-.08-1.52-.12-.27-.03-.54-.05-.8-.08-.57-.06-1.15-.14-1.72-.22-.19-.03-.38-.05-.57-.08-.76-.12-1.52-.26-2.27-.41-.17-.03-.33-.08-.5-.11-.59-.13-1.18-.26-1.76-.41-.26-.06-.51-.14-.77-.2-.5-.13-1-.28-1.5-.43-.27-.08-.54-.16-.81-.25-.5-.16-1-.33-1.5-.5-.25-.09-.49-.17-.74-.26-.61-.23-1.22-.47-1.83-.72-.12-.05-.24-.09-.36-.14-.72-.31-1.44-.63-2.16-.98-.2-.1-.39-.2-.59-.3-.51-.26-1.03-.52-1.54-.79-.25-.13-.5-.27-.75-.41-.46-.26-.92-.52-1.37-.79-.25-.15-.5-.3-.75-.46-.47-.29-.94-.6-1.4-.91-.21-.14-.43-.28-.64-.43-.67-.46-1.33-.94-1.99-1.44-1.8-1.37-3.5-2.86-5.1-4.45-1.6-1.59-3.1-3.29-4.48-5.08l-12.39,7.44c49.13,96.98,15.81,217.58-77.02,272.75-2.11,1.25-4.23,2.45-6.36,3.62-.7.38-1.42.74-2.12,1.12-1.44.76-2.87,1.52-4.32,2.24-.84.42-1.69.82-2.53,1.23-1.33.64-2.66,1.27-3.99,1.88-.89.41-1.79.8-2.68,1.19-1.31.57-2.62,1.13-3.93,1.67-.9.37-1.81.74-2.72,1.1-1.34.53-2.68,1.03-4.02,1.52-.88.32-1.76.65-2.64.97-1.45.51-2.91.99-4.36,1.46-.77.25-1.55.52-2.32.76-2.08.65-4.17,1.26-6.26,1.84-.23.06-.45.13-.68.19-2.15.58-4.31,1.12-6.47,1.63-.78.18-1.57.34-2.35.51-1.48.33-2.96.65-4.44.94-.9.18-1.81.33-2.71.5-1.37.25-2.75.49-4.12.71-.94.15-1.87.29-2.81.42-1.36.2-2.71.38-4.07.54-.93.11-1.87.22-2.8.32-1.39.15-2.78.28-4.17.39-.89.08-1.78.16-2.67.22-1.52.11-3.04.19-4.56.26-.76.04-1.51.09-2.27.11-2.21.08-4.42.12-6.62.13-.06,0-.13,0-.19,0,0,0,0,0-.01,0-2.21,0-4.41-.05-6.62-.12-.29,0-.59-.02-.88-.03-2.1-.08-4.21-.2-6.3-.35-.37-.03-.74-.05-1.11-.08-2.08-.16-4.16-.35-6.24-.58-.34-.04-.67-.08-1-.12-2.14-.25-4.28-.52-6.4-.84-.16-.02-.31-.05-.46-.07-2.14-.32-4.28-.69-6.41-1.08-.16-.03-.32-.06-.48-.09-2.12-.4-4.24-.84-6.34-1.31-.31-.07-.63-.14-.94-.21-2.05-.47-4.1-.97-6.14-1.51-.33-.09-.66-.18-.99-.26-2.06-.55-4.11-1.13-6.15-1.75-.24-.07-.48-.15-.71-.22-4.27-1.31-8.5-2.78-12.68-4.38-.24-.09-.47-.18-.71-.27-1.99-.77-3.97-1.59-5.94-2.42-.31-.13-.63-.27-.94-.4-1.94-.84-3.87-1.71-5.79-2.62-.29-.14-.58-.28-.87-.41-1.97-.94-3.92-1.91-5.86-2.91-.14-.07-.27-.14-.41-.22-1.94-1.01-3.86-2.06-5.77-3.14-.14-.08-.29-.16-.43-.24-1.89-1.07-3.76-2.19-5.62-3.33-.29-.18-.58-.36-.87-.54-1.8-1.12-3.58-2.26-5.35-3.44-.31-.21-.62-.42-.94-.63-1.77-1.2-3.53-2.42-5.27-3.67-.24-.17-.47-.35-.71-.52-1.82-1.33-3.63-2.68-5.41-4.08,1.5,1.48,3.01,2.93,4.54,4.37.49.46.99.92,1.48,1.38,1.05.98,2.11,1.95,3.17,2.9.57.52,1.15,1.03,1.73,1.54,1.02.9,2.04,1.79,3.07,2.68.58.5,1.16,1,1.74,1.49,1.1.93,2.22,1.85,3.33,2.77.5.41,1,.83,1.5,1.23,1.62,1.3,3.25,2.59,4.89,3.86.06.05.12.09.19.14,1.58,1.22,3.18,2.41,4.78,3.59.53.39,1.07.77,1.6,1.16,1.15.83,2.31,1.66,3.47,2.47.62.43,1.24.86,1.86,1.29,1.11.76,2.23,1.52,3.35,2.27.62.41,1.24.83,1.87,1.24,1.21.79,2.42,1.57,3.64,2.34.53.33,1.05.67,1.58,1,1.75,1.09,3.5,2.16,5.27,3.2.11.07.22.13.33.19,1.65.98,3.32,1.93,4.99,2.87.57.32,1.14.63,1.71.95,1.23.68,2.47,1.36,3.71,2.02.65.35,1.31.69,1.96,1.03,1.19.62,2.39,1.24,3.59,1.84.65.33,1.3.66,1.96.98,1.3.64,2.61,1.27,3.92,1.89.54.26,1.08.52,1.62.77,1.85.86,3.71,1.71,5.58,2.53.16.07.32.14.48.21,1.7.74,3.41,1.47,5.13,2.18.61.25,1.22.49,1.82.74,1.29.52,2.58,1.04,3.88,1.54.69.27,1.38.53,2.07.79,1.25.47,2.51.93,3.77,1.39.68.25,1.36.49,2.04.73,1.37.48,2.75.95,4.12,1.41.55.18,1.1.38,1.66.56,1.93.63,3.87,1.24,5.82,1.83.22.07.44.13.67.19,1.72.51,3.45,1.01,5.18,1.49.63.18,1.27.34,1.91.51,1.33.36,2.66.71,4,1.05.72.18,1.44.36,2.16.54,1.29.32,2.58.62,3.88.92.71.16,1.41.32,2.12.48,1.42.31,2.85.61,4.28.9.56.11,1.13.24,1.69.35,1.99.39,3.98.76,5.97,1.11.3.05.6.1.9.15,1.69.29,3.39.56,5.09.82.67.1,1.35.19,2.02.29,1.34.19,2.69.38,4.04.55.75.1,1.5.19,2.24.27,1.31.16,2.62.3,3.93.44.73.08,1.46.15,2.19.22,1.45.14,2.9.26,4.35.38.57.05,1.15.1,1.72.14,2.02.15,4.04.27,6.06.37.36.02.72.03,1.08.04,1.67.08,3.34.14,5.01.19.69.02,1.39.03,2.08.04,1.35.03,2.7.04,4.06.05.65,0,1.31,0,1.96,0,2.58,0,5.15-.04,7.73-.13.18,0,.36-.02.55-.02,2.45-.08,4.91-.21,7.36-.36.54-.03,1.09-.07,1.63-.1,2.54-.17,5.07-.38,7.61-.63.48-.05.97-.1,1.45-.15,2.33-.24,4.66-.51,6.99-.81.38-.05.76-.09,1.14-.14,2.54-.34,5.08-.73,7.62-1.14.58-.09,1.15-.19,1.73-.29,2.57-.44,5.14-.9,7.71-1.42.15-.03.29-.06.44-.09,2.46-.5,4.92-1.04,7.38-1.61.55-.13,1.11-.26,1.66-.39,2.51-.6,5.01-1.23,7.51-1.91.47-.13.93-.26,1.4-.39,2.28-.63,4.56-1.29,6.84-1.99.4-.12.81-.24,1.21-.36,2.49-.77,4.98-1.59,7.46-2.44.56-.19,1.12-.39,1.69-.59,2.53-.88,5.05-1.8,7.56-2.76.08-.03.16-.06.24-.09,2.46-.95,4.9-1.94,7.34-2.96.54-.23,1.08-.45,1.62-.68,2.44-1.04,4.88-2.12,7.31-3.24.42-.2.85-.4,1.27-.6,2.22-1.04,4.43-2.11,6.63-3.21.4-.2.81-.4,1.21-.6,2.4-1.22,4.8-2.49,7.18-3.79.53-.29,1.05-.58,1.58-.87,2.44-1.35,4.87-2.73,7.28-4.16,0,0,0,0,.01,0,5.7-3.39,11.23-6.94,16.59-10.67,1.79-1.24,3.55-2.5,5.3-3.78,7.11,5.21,14.51,10.11,22.2,14.71,2.42,1.44,4.86,2.83,7.31,4.19.52.29,1.04.58,1.56.86,2.39,1.31,4.79,2.58,7.21,3.81.4.2.79.4,1.19.6,2.23,1.12,4.47,2.21,6.71,3.26.39.19.79.38,1.18.56,2.45,1.13,4.91,2.22,7.37,3.28.52.22,1.03.44,1.55.65,5.06,2.13,10.16,4.09,15.29,5.89.51.18,1.03.36,1.54.54,2.52.87,5.04,1.7,7.57,2.48.37.11.74.22,1.11.33,2.36.72,4.72,1.41,7.09,2.06.39.11.77.22,1.16.32,2.55.69,5.1,1.34,7.65,1.95.51.12,1.03.24,1.54.36,5.22,1.22,10.45,2.27,15.7,3.17.53.09,1.06.18,1.59.27,2.56.42,5.13.81,7.7,1.16.39.05.77.1,1.16.15,2.37.31,4.73.58,7.1.83.42.04.84.09,1.27.13,2.56.25,5.11.46,7.67.63.54.04,1.09.07,1.63.1,2.57.16,5.14.3,7.71.38.05,0,.1,0,.16,0,2.6.09,5.2.12,7.8.13.63,0,1.27,0,1.9,0,1.38,0,2.76-.02,4.13-.05.66-.01,1.32-.02,1.99-.04,1.9-.05,3.79-.12,5.68-.21.13,0,.26,0,.4-.02,2.02-.1,4.03-.23,6.05-.37.65-.05,1.29-.1,1.93-.16,1.38-.11,2.76-.23,4.13-.36.76-.07,1.52-.15,2.27-.23,1.28-.13,2.56-.27,3.84-.43.77-.09,1.53-.18,2.3-.28,1.33-.17,2.66-.35,3.98-.54.68-.1,1.37-.19,2.05-.29,1.8-.27,3.59-.56,5.38-.86.2-.03.4-.06.6-.1,1.97-.34,3.93-.71,5.89-1.09.68-.13,1.36-.28,2.04-.42,1.3-.27,2.6-.54,3.9-.82.78-.17,1.56-.35,2.34-.53,1.21-.28,2.42-.56,3.63-.86.79-.19,1.57-.38,2.35-.58,1.25-.32,2.5-.65,3.75-.98.71-.19,1.42-.38,2.13-.57,1.66-.46,3.32-.94,4.97-1.43.39-.11.77-.23,1.16-.34,1.79-.54,3.57-1.1,5.35-1.68.7-.23,1.4-.47,2.11-.71,1.22-.41,2.43-.82,3.65-1.24.78-.27,1.56-.56,2.34-.84,1.15-.41,2.29-.83,3.43-1.26.78-.29,1.56-.59,2.33-.89,1.19-.46,2.37-.93,3.55-1.41.7-.28,1.41-.56,2.11-.85,1.6-.66,3.19-1.34,4.77-2.03.4-.17.8-.35,1.2-.52,1.69-.74,3.36-1.5,5.04-2.28.68-.31,1.35-.64,2.02-.96,1.17-.56,2.33-1.12,3.5-1.69.74-.37,1.48-.74,2.22-1.11,1.1-.56,2.2-1.12,3.29-1.69.73-.38,1.47-.77,2.2-1.16,1.15-.61,2.29-1.23,3.42-1.86.65-.36,1.31-.71,1.96-1.08,1.57-.88,3.13-1.78,4.69-2.7.3-.18.61-.36.91-.53,1.63-.97,3.25-1.96,4.86-2.96.61-.38,1.21-.77,1.82-1.15,1.13-.72,2.26-1.44,3.39-2.18.67-.44,1.34-.89,2.01-1.33,1.07-.71,2.13-1.43,3.19-2.16.66-.45,1.31-.9,1.97-1.36,1.12-.78,2.23-1.58,3.34-2.38.57-.41,1.14-.82,1.71-1.24,1.58-1.16,3.15-2.34,4.71-3.53.11-.09.22-.17.33-.25,1.6-1.23,3.18-2.49,4.76-3.76.53-.43,1.06-.87,1.58-1.3,1.09-.89,2.17-1.79,3.25-2.7.59-.5,1.19-1.01,1.78-1.52,1.02-.87,2.03-1.76,3.04-2.65.58-.52,1.16-1.03,1.74-1.55,1.06-.95,2.11-1.92,3.16-2.9.49-.46.99-.91,1.48-1.38,1.52-1.44,3.04-2.89,4.53-4.37-1.78,1.39-3.59,2.75-5.42,4.07-.24.17-.47.35-.71.52Zm-332.86-145.37c-.15.36-.31.72-.49,1.06-1.98,3.78-5.92,6.38-10.48,6.45-.02,0-.03,0-.05,0h-.01c-.1,0-.2,0-.3,0-.17,0-.33-.02-.49-.02-.2,0-.4-.01-.59-.03-.21-.02-.42-.05-.63-.08-.19-.03-.39-.05-.57-.09-.21-.04-.41-.09-.61-.14-.18-.05-.37-.09-.55-.14-.2-.06-.39-.13-.59-.2-.18-.06-.36-.12-.53-.19-.19-.08-.38-.17-.56-.25-.17-.08-.34-.15-.5-.24-.18-.1-.36-.2-.54-.31-.16-.09-.32-.18-.47-.28-.17-.11-.34-.24-.5-.36-.15-.11-.3-.21-.44-.32-.16-.13-.31-.27-.47-.41-.14-.12-.28-.23-.41-.36-.15-.14-.29-.3-.43-.45-.12-.13-.25-.26-.37-.4-.14-.16-.26-.33-.39-.49-.11-.14-.22-.28-.33-.42-.12-.17-.23-.36-.35-.54-.09-.15-.19-.29-.28-.45-.11-.19-.2-.39-.3-.58-.08-.16-.16-.31-.24-.47-.09-.21-.17-.42-.25-.63-.06-.16-.13-.31-.18-.47-.08-.23-.13-.46-.2-.7-.04-.15-.09-.3-.13-.46-.06-.27-.1-.54-.14-.81-.02-.13-.05-.25-.07-.38-.05-.41-.08-.82-.09-1.24-.07-2.95.91-5.68,2.6-7.83.97-1.23,2.16-2.27,3.53-3.06.34-.2.69-.38,1.05-.54.72-.33,1.48-.59,2.27-.77.79-.18,1.61-.29,2.45-.31.1,0,.2,0,.3,0,.17,0,.33.02.49.02.2,0,.4.01.59.03.21.02.42.05.63.08.19.03.38.05.57.09.21.04.41.09.62.14.18.04.37.09.55.14.2.06.4.13.6.2.17.06.35.12.52.19.2.08.38.17.58.26.16.08.33.15.49.23.19.1.37.21.55.32.15.09.31.18.46.27.18.12.35.24.52.37.14.1.29.2.42.31.17.13.32.28.48.42.13.12.27.23.39.35.15.15.3.31.44.46.12.13.24.25.36.38.14.16.27.34.4.51.1.14.22.27.31.41.13.18.24.37.36.56.09.14.19.28.27.43.11.19.2.39.3.59.08.15.16.3.23.46.09.21.17.42.25.64.06.16.13.31.18.47.08.23.14.47.2.71.04.15.09.3.13.45.06.27.1.55.15.82.02.13.05.25.07.38.05.41.08.82.09,1.24h0c0,.1,0,.2,0,.29,0,.4,0,.8-.04,1.19,0,.07-.02.14-.02.21-.07.65-.19,1.29-.35,1.91-.13.47-.27.94-.46,1.39Zm-.48-44.45c-2.18,1.28-4.64,2.15-7.27,2.51-.66.09-1.32.14-2,.17-.22,0-.44.01-.65.01-.24,0-.47-.03-.7-.03-.32-.01-.63-.02-.95-.05-.34-.03-.67-.07-1.01-.12-.31-.04-.62-.08-.92-.14-.33-.06-.66-.14-.98-.22-.3-.07-.59-.14-.89-.22-.32-.09-.63-.2-.95-.31-.28-.1-.57-.19-.84-.3-.31-.12-.61-.27-.91-.4-.27-.12-.54-.24-.8-.38-.3-.15-.58-.32-.87-.49-.25-.15-.51-.29-.75-.44-.28-.18-.55-.38-.82-.57-.23-.17-.47-.33-.7-.51-.27-.21-.52-.43-.77-.66-.21-.19-.43-.37-.64-.56-.25-.23-.48-.48-.71-.73-.19-.2-.39-.4-.58-.61-.23-.26-.43-.54-.65-.81-.17-.22-.35-.43-.51-.66-.2-.28-.39-.58-.57-.88-.15-.23-.31-.46-.44-.7-.18-.31-.33-.63-.49-.95-.12-.24-.26-.48-.37-.73-.15-.33-.28-.68-.41-1.02-.1-.25-.21-.49-.29-.74-.13-.37-.22-.75-.33-1.12-.07-.24-.15-.48-.21-.72-.1-.42-.17-.86-.24-1.3-.03-.21-.09-.41-.11-.62-.09-.65-.14-1.31-.17-1.98,0-.21-.01-.42-.01-.63-.07-5.33,2.02-10.19,5.47-13.74,1.72-1.77,3.78-3.22,6.08-4.23,2.3-1.01,4.83-1.59,7.49-1.64h-.06s0-.01,0-.01h0s0,0,0,0c.22,0,.43-.01.65-.01.24,0,.47.03.7.03.32.01.63.02.95.05.34.03.68.07,1.01.12.31.04.61.08.91.14.34.06.66.14.99.22.29.07.59.14.87.22.33.09.64.21.96.32.28.1.56.19.83.3.32.13.62.27.93.41.26.12.53.24.79.37.3.16.6.33.89.5.25.14.49.28.73.43.29.19.56.39.84.59.23.16.46.32.68.49.27.21.53.44.78.67.21.18.42.36.63.55.25.24.49.49.72.75.19.2.39.39.57.6.23.26.44.54.66.82.17.22.34.42.5.65.21.29.39.59.58.89.15.23.3.45.44.69.18.31.34.64.5.96.12.24.25.47.37.71.15.34.28.69.42,1.03.1.25.2.48.29.73.13.37.22.75.33,1.12.07.24.15.48.21.72.1.42.17.86.24,1.3.03.21.09.41.11.62.09.65.14,1.31.17,1.98.24,7.45-3.7,14.06-9.7,17.58Z" style="fill:#16a34a;"/></g></svg>